<?xml version="1.0" standalone="no"?>
<!DOCTYPE svg PUBLIC "-//W3C//DTD SVG 20010904//EN"
 "http://www.w3.org/TR/2001/REC-SVG-20010904/DTD/svg10.dtd">
<svg version="1.0" xmlns="http://www.w3.org/2000/svg"
 width="500.000000pt" height="500.000000pt" viewBox="0 0 500.000000 500.000000"
 preserveAspectRatio="xMidYMid meet">
<metadata>
Created by potrace 1.11, written by Peter Selinger 2001-2013
</metadata>
<g transform="translate(0.000000,500.000000) scale(0.100000,-0.100000)"
fill="#000000" stroke="none">
<path d="M2310 4987 c-3 -3 -41 -8 -85 -12 -67 -5 -152 -20 -304 -51 -14 -3
-28 -7 -31 -9 -4 -2 -21 -7 -38 -10 -83 -14 -376 -126 -481 -183 -25 -14 -64
-35 -86 -46 -42 -23 -58 -33 -168 -104 -395 -257 -734 -671 -920 -1122 -67
-164 -138 -411 -153 -535 -4 -27 -8 -52 -10 -56 -18 -31 -27 -519 -11 -629 4
-30 10 -73 12 -95 3 -22 10 -62 15 -90 6 -27 12 -59 14 -70 34 -173 118 -410
213 -600 47 -94 152 -268 165 -273 4 -2 8 -8 8 -14 0 -23 173 -231 290 -348
158 -158 297 -267 487 -383 80 -49 316 -163 373 -182 25 -7 79 -26 120 -40 81
-28 286 -81 353 -90 23 -3 49 -8 57 -10 73 -19 539 -28 645 -12 28 4 68 10 90
13 298 38 658 168 939 342 81 50 223 147 236 162 3 3 21 18 40 34 446 362 775
919 869 1471 6 33 13 74 16 90 21 120 28 497 12 640 -38 336 -156 695 -324
980 -38 64 -120 190 -140 215 -7 8 -25 31 -40 51 -135 173 -305 341 -468 465
-44 34 -204 144 -209 144 -2 0 -41 22 -87 48 -239 137 -580 252 -854 288 -22
3 -51 8 -65 11 -32 6 -474 15 -480 10z"/>
</g>
</svg>
